<svg class="bellpepper-design-logo" xmlns="http://www.w3.org/2000/svg" viewBox="0 0 75.41 88.97"><defs><style>.cls-1{fill:#3dac54;}</style></defs><title>bellpepper-design</title><g id="Layer_2" data-name="Layer 2"><g id="Pepper_on_Grey" data-name="Pepper on Grey"><path class="cls-1" d="M75.41,34.09a30.8,30.8,0,0,1-.35,3.72c-.25,1.78-.59,3.55-1,5.3-.59,2.63-1.28,5.23-2,7.82-1,3.68-2.2,7.32-3.4,11-.89,2.69-1.8,5.38-2.68,8.07-.67,2.06-1.27,4.15-2.06,6.17a30.88,30.88,0,0,1-3.34,6.49A15.92,15.92,0,0,1,57,86.38,13.18,13.18,0,0,1,49.66,89a11.87,11.87,0,0,1-4.18-.56,27,27,0,0,1-3.68-1.54,22.14,22.14,0,0,0-3.31-1.36,2.9,2.9,0,0,0-1.49,0,11.48,11.48,0,0,0-1.73.62c-1.28.56-2.52,1.23-3.81,1.77a13,13,0,0,1-6.84,1,13.59,13.59,0,0,1-4-1.16,15.41,15.41,0,0,1-5.91-5.07,25,25,0,0,1-2.53-4.45,36.55,36.55,0,0,1-1.9-5.38c-.36-1.35-.71-2.71-1.17-4-1.1-3.2-2.41-6.33-3.64-9.48S3,52.77,2,49.41a48.79,48.79,0,0,1-2-11A22.84,22.84,0,0,1,.32,33a16.4,16.4,0,0,1,2-5.46,13.16,13.16,0,0,1,5.14-5,18,18,0,0,1,7.17-1.95c.21,0,.27-.1.33-.28A16.32,16.32,0,0,1,20,13a14.9,14.9,0,0,1,7.89-3.3,18.93,18.93,0,0,1,4.45,0,18.67,18.67,0,0,1,4.72,1.18c.18.08.24,0,.3-.13a21.42,21.42,0,0,1,.88-2.17,25.22,25.22,0,0,1,2.62-4.42A23.65,23.65,0,0,1,43.62.94a3.27,3.27,0,0,1,3-.87,33.67,33.67,0,0,1,5.1,2.68,2.84,2.84,0,0,1,1.4,3.06,2.93,2.93,0,0,1-1.21,1.94,31.42,31.42,0,0,0-3.15,2.47,16.2,16.2,0,0,0-2.62,3,9.34,9.34,0,0,0-1.24,2.61c0,.1-.06.17,0,.26.54.46.68.49,1.35.23,1.18-.45,2.33-1,3.5-1.46a20.81,20.81,0,0,1,6.35-1.6,21.52,21.52,0,0,1,3.5,0,19.72,19.72,0,0,1,4,.66,14.88,14.88,0,0,1,6.55,3.68,15.67,15.67,0,0,1,3.62,5.59,21.8,21.8,0,0,1,1.33,5.15C75.28,29.41,75.42,34,75.41,34.09Zm-58.62,4.8c.09,1.22.19,2.43.33,3.64.18,1.55.42,3.1.69,4.63.39,2.26.88,4.49,1.46,6.71C20.07,57,21,60,22.13,63c.81,2.19,1.68,4.35,2.64,6.47.43,1-3.79.31-7.74-9.55q-1.22-3.8-2.1-7.68c-.39-1.7-.73-3.42-1-5.14-.22-1.33-.41-2.68-.56-4-.14-1.18-.25-2.36-.33-3.55s-.14-2.24-.14-3.36c0-.88,0-1.76,0-2.64,0-1.43.11-2.86.23-4.28s.32-3.11.6-4.64c0,0,0-.08,0-.12,0-.2-.05-.22-.21-.19-.45.09-.89.17-1.33.29A11.14,11.14,0,0,0,7.7,26.85a10,10,0,0,0-3.09,4.53,14.6,14.6,0,0,0-.73,3.41,24,24,0,0,0,0,3.6c.07,1.14.21,2.28.39,3.41a55,55,0,0,0,2,8.21c.93,2.93,2,5.79,3.13,8.66.93,2.4,1.88,4.79,2.74,7.22.5,1.38.94,2.78,1.35,4.19.51,1.73.94,3.48,1.6,5.17a22.35,22.35,0,0,0,3,5.7,11,11,0,0,0,4.11,3.4,10,10,0,0,0,2.9.77A10.57,10.57,0,0,0,30.83,84c1-.45,1.93-1,2.89-1.42a9.76,9.76,0,0,1,3.16-1,7.7,7.7,0,0,1,3.19.37,28.87,28.87,0,0,1,3.31,1.49A19.07,19.07,0,0,0,47.18,85a9,9,0,0,0,2.83.18,9.9,9.9,0,0,0,2.68-.59,9.15,9.15,0,0,0,3.06-2.05,17.17,17.17,0,0,0,2.92-4,42.16,42.16,0,0,0,3.21-8.07c.64-2.15,1.36-4.27,2.06-6.39,1.15-3.48,2.29-7,3.36-10.48q1.52-5,2.74-10c.44-1.84.83-3.7,1.14-5.57a37.67,37.67,0,0,0,.48-4.24,25.66,25.66,0,0,0-.09-3,24.47,24.47,0,0,0-.44-3.19,15.49,15.49,0,0,0-2.29-5.65,10.6,10.6,0,0,0-6-4.28A17.88,17.88,0,0,0,57.49,17a16.8,16.8,0,0,0-6.16,1.35c-1,.43-2,1-3.06,1.41a7.31,7.31,0,0,1-2.53.59,4.41,4.41,0,0,1-3-1.05c-1.17-.91-2.27-1.91-3.46-2.81a14.62,14.62,0,0,0-6.22-2.82,17,17,0,0,0-3.7-.29,12.36,12.36,0,0,0-5,1.14,10.78,10.78,0,0,0-3.34,2.58,13.23,13.23,0,0,0-2.83,5.12c-.16.57-1,4.1-1.18,5.13s-.25,2.3-.33,3.46c-.07.93-.08,1.86-.11,2.79,0,.37,0,.73,0,1.1C16.69,36.08,16.7,37.49,16.79,38.89Zm24.08-26,.63.44c.22.15.22.15.33-.1a13.54,13.54,0,0,1,1.41-2.59,18.94,18.94,0,0,1,3.77-4c.52-.42,1.05-.81,1.6-1.19.17-.11.15-.16,0-.25C47.82,4.82,47,4.4,46.27,4c-.16-.09-.23-.06-.34.06a24.81,24.81,0,0,0-3.12,4,16.5,16.5,0,0,0-2,4.49.71.71,0,0,0,0,.2C40.72,12.84,40.8,12.87,40.87,12.91Z"/></g></g></svg>